<?xml version="1.0" standalone="no"?>
<!DOCTYPE svg PUBLIC "-//W3C//DTD SVG 20010904//EN"
 "http://www.w3.org/TR/2001/REC-SVG-20010904/DTD/svg10.dtd">
<svg version="1.0" xmlns="http://www.w3.org/2000/svg"
 width="300.000000pt" height="226.000000pt" viewBox="0 0 300.000000 226.000000"
 preserveAspectRatio="xMidYMid meet">
<g transform="translate(0.000000,226.000000) scale(0.100000,-0.100000)"
fill="#000000" stroke="none">
<path style="fill:#e64d7c;" d="M2384 2187 c-3 -10 -21 -12 -62 -9 -39 3 -70 -1 -96 -12 -21 -9 -48
-16 -60 -16 -25 0 -48 -56 -152 -360 -90 -264 -157 -434 -247 -625 -82 -175
-124 -297 -133 -384 l-6 -56 234 0 234 0 -4 126 c-3 71 1 157 8 197 l11 70 36
4 c32 4 37 1 47 -24 9 -23 15 -28 33 -23 13 3 43 8 68 12 27 3 42 10 38 16 -3
6 4 3 18 -6 13 -9 41 -17 63 -17 25 0 43 -6 52 -17 7 -10 16 -15 20 -11 4 4 1
14 -6 23 -8 9 -8 15 -2 15 6 0 14 -5 17 -10 3 -5 11 -10 17 -10 7 0 7 5 -1 14
-9 11 -9 15 1 18 9 3 6 33 -15 124 -15 65 -32 144 -37 174 -17 88 -29 295 -20
335 11 47 -2 83 -34 95 -23 8 -46 37 -46 56 0 4 14 -5 32 -22 l31 -29 -22 33
c-23 33 -23 33 -4 55 32 35 39 55 35 93 -4 29 -8 35 -23 31 -12 -3 -26 4 -40
21 -13 18 -19 21 -15 9 3 -10 6 -35 7 -55 0 -20 3 -31 6 -24 9 23 23 12 23
-19 0 -28 -2 -30 -16 -18 -15 12 -16 10 -10 -19 4 -17 4 -32 -1 -32 -5 0 -17
-16 -27 -36 -21 -45 -28 -41 -16 11 5 22 10 48 10 58 0 19 -89 121 -99 112 -9
-10 42 -93 61 -98 13 -4 18 -15 18 -40 0 -31 -2 -35 -22 -30 -13 3 -35 17 -50
31 -34 31 -37 56 -7 47 23 -8 25 -14 -27 70 l-25 40 3 -65 c5 -79 23 -119 63
-140 17 -8 32 -16 34 -17 8 -5 -46 -45 -86 -63 -35 -16 -43 -24 -44 -47 0 -15
-4 -37 -8 -48 -5 -12 -4 -26 3 -35 9 -13 9 -13 -5 -2 -14 11 -23 -1 -69 -96
-43 -90 -58 -113 -91 -133 -34 -21 -39 -28 -38 -59 1 -19 4 -46 8 -58 l6 -24
19 21 c11 12 24 21 29 21 6 0 -2 -13 -17 -29 -22 -23 -26 -33 -18 -47 36 -67
132 -108 199 -85 66 22 117 44 146 64 16 11 30 18 31 16 2 -2 1 -33 -3 -69 -7
-61 -11 -63 -26 -14 -3 9 0 24 7 33 7 9 2 7 -12 -5 -55 -45 -83 -57 -136 -55
-34 0 -58 -4 -67 -14 -13 -13 -16 -13 -27 0 -7 8 -21 15 -31 15 -11 0 -39 18
-63 40 -49 46 -74 93 -58 113 5 6 6 21 2 32 -6 17 -12 12 -39 -35 -45 -78 -48
-96 -20 -120 13 -11 34 -23 47 -26 12 -3 22 -14 22 -24 0 -12 10 -20 32 -24
17 -3 33 -4 36 -1 3 3 -2 5 -10 5 -22 0 -118 90 -118 111 0 37 23 30 66 -18
23 -28 57 -56 74 -63 30 -12 45 -48 15 -36 -8 3 -15 2 -15 -2 0 -4 14 -13 32
-20 52 -19 24 -25 -42 -8 -34 9 -65 16 -68 16 -4 0 -6 -66 -6 -147 1 -82 0
-155 -2 -164 -4 -13 -21 -15 -120 -13 -66 2 -122 8 -130 14 -25 21 1 121 77
293 22 51 49 116 60 146 10 29 28 68 40 87 11 19 29 56 39 82 44 114 62 159
75 187 7 17 50 140 95 275 46 135 87 253 92 263 5 9 18 17 29 17 11 0 28 4 38
9 9 5 35 12 57 14 21 3 47 8 57 12 13 5 16 3 12 -7 -4 -9 8 -25 30 -42 22 -17
35 -22 35 -14 0 7 -9 19 -20 26 -24 15 -25 22 -4 48 13 16 15 16 10 2 -3 -10
-1 -18 4 -18 9 0 90 -112 90 -124 0 -3 18 -35 40 -71 107 -175 240 -464 310
-675 110 -330 90 -527 -73 -709 -73 -82 -95 -93 -116 -61 -8 12 -30 39 -48 59
-18 20 -33 45 -33 56 0 11 12 61 25 110 67 240 74 343 38 565 -37 233 -132
634 -160 676 -18 28 -37 32 -29 7 20 -67 112 -455 138 -587 28 -139 33 -181
32 -311 0 -142 -2 -157 -38 -290 -21 -77 -38 -162 -39 -190 -1 -51 26 -118 57
-144 20 -17 21 -3 1 18 -18 21 -33 107 -17 97 7 -4 12 -14 12 -22 0 -8 14 -39
31 -69 27 -49 30 -59 20 -87 -15 -43 -6 -47 15 -6 9 18 54 71 99 118 99 102
139 162 167 253 29 97 22 290 -16 431 -79 294 -385 914 -486 986 -33 24 -39
24 -46 7z m-14 -372 c0 -8 -14 -30 -31 -50 -25 -28 -34 -33 -45 -24 -8 6 -14
18 -14 25 0 27 -20 14 -36 -23 -33 -78 -94 -255 -114 -333 -23 -89 -20 -103
34 -163 l25 -29 43 30 c43 29 102 62 113 62 3 0 5 -7 5 -16 0 -8 -5 -12 -10
-9 -6 4 -41 -13 -78 -37 -36 -23 -70 -42 -75 -40 -4 1 -18 -4 -30 -13 -12 -8
-30 -15 -40 -15 -37 0 -127 59 -127 84 0 7 22 11 53 11 42 0 55 -4 70 -23 10
-12 27 -27 37 -32 13 -7 9 4 -15 40 -18 27 -35 55 -37 62 -3 9 -13 6 -32 -10
-34 -26 -43 -22 -52 24 -4 24 -1 48 12 76 16 36 21 39 46 34 15 -3 28 -1 28 3
0 5 3 16 6 25 4 12 0 16 -16 16 -22 0 -22 1 -5 26 22 34 145 246 145 250 0 2
-8 1 -17 -2 -15 -5 -15 -4 -3 4 8 6 17 9 21 6 4 -2 9 5 12 16 6 22 37 28 37 7
0 -7 6 -22 14 -33 14 -19 14 -19 13 1 -1 14 3 19 16 17 10 -2 21 7 29 23 13
28 18 32 18 10z m30 -74 c0 -40 -12 -56 -45 -63 -12 -2 -21 -13 -23 -26 -2
-13 -17 -36 -33 -53 -16 -16 -36 -44 -45 -61 -20 -39 -9 -78 42 -151 19 -26
34 -49 34 -51 0 -2 -21 -16 -46 -31 -25 -15 -55 -36 -66 -47 -22 -22 -39 -14
-63 32 -12 23 -10 37 10 115 13 50 34 122 47 160 21 61 29 72 61 88 20 10 37
26 37 34 0 19 72 101 83 96 4 -2 7 -21 7 -42z m-126 -37 c25 -9 19 -24 -9 -24
-16 0 -25 6 -25 15 0 16 9 19 34 9z m150 -55 c-7 -11 -71 -12 -78 0 -9 14 1
17 43 13 23 -2 38 -8 35 -13z m-72 -197 c2 -45 0 -82 -3 -82 -4 0 -22 30 -42
67 l-35 67 36 52 37 51 2 -36 c2 -20 4 -73 5 -119z m56 -8 c2 -23 -1 -33 -8
-29 -6 4 -8 19 -6 33 7 45 11 44 14 -4z m32 -76 c1 -2 11 -61 24 -131 13 -70
20 -129 17 -131 -17 -10 -68 -15 -79 -8 -8 6 -14 50 -19 140 l-6 132 31 0 c18
0 32 -1 32 -2z m-150 -242 c0 -16 -37 -29 -45 -16 -3 5 3 13 12 19 25 14 33
13 33 -3z m-262 -87 c2 -5 9 -6 15 -2 7 4 8 0 3 -13 -4 -10 -11 -50 -16 -89
-16 -128 -23 -157 -37 -162 -30 -12 -38 15 -41 131 -4 134 5 161 46 151 15 -4
29 -11 30 -16z m35 -172 c-5 -89 -9 -117 -19 -117 -8 0 -14 9 -14 20 0 26 32
221 36 217 1 -1 0 -55 -3 -120z"/>
<path style="fill:#e64d7c;" d="M2142 1887 c-25 -30 -33 -69 -20 -106 11 -35 12 -35 19 -11 4 14 7
44 8 68 1 49 10 53 33 15 l17 -28 1 25 c1 22 2 23 11 8 5 -10 15 -18 21 -18 7
0 -1 14 -17 30 -31 32 -56 38 -73 17z"/>
<path style="fill:#e64d7c;" d="M1877 1133 c-15 -15 -5 -31 18 -29 28 1 34 21 9 30 -19 7 -19 7 -27
-1z"/>
<path style="fill:#e64d7c;" d="M2270 1068 c-30 -6 -56 -11 -58 -13 -1 -1 2 -15 8 -31 7 -16 25 -83
41 -149 35 -138 59 -203 112 -298 39 -69 90 -189 102 -240 5 -19 0 -44 -15
-78 -12 -28 -19 -57 -16 -64 5 -15 69 -28 96 -20 36 11 36 80 0 196 -17 57
-36 120 -42 139 -5 19 -27 73 -49 120 -21 48 -43 115 -49 155 -26 171 -55 296
-68 294 -4 -1 -32 -6 -62 -11z m41 -39 c6 -12 24 -92 39 -178 17 -99 37 -179
54 -215 15 -32 25 -61 22 -63 -3 -3 -25 37 -49 88 -41 86 -107 313 -107 368 0
27 26 27 41 0z m219 -774 c0 -14 -7 -28 -15 -32 -23 -8 -27 1 -16 31 13 33 31
34 31 1z"/>
<path style="fill:#e64d7c;" d="M2380 1055 c0 -8 5 -15 10 -15 6 0 10 7 10 15 0 8 -4 15 -10 15 -5 0
-10 -7 -10 -15z"/>
<path style="fill:#e64d7c;" d="M2430 1050 c0 -11 5 -20 10 -20 6 0 10 9 10 20 0 11 -4 20 -10 20 -5
0 -10 -9 -10 -20z"/>
<path d="M88 703 l-57 -4 5 -117 c3 -64 2 -153 -3 -197 l-9 -81 89 1 c48 0 78
3 65 7 -15 4 -5 6 29 7 50 1 54 3 76 39 41 66 20 143 -43 155 -25 4 -25 4 -2
12 12 4 22 10 22 14 0 3 5 23 9 45 9 37 8 40 -36 82 -28 28 -53 43 -66 42 -12
-1 -48 -3 -79 -5z m94 -80 c38 -34 11 -83 -46 -83 l-36 0 0 50 c0 49 0 50 32
50 17 0 40 -7 50 -17z m34 -160 c36 -48 0 -99 -61 -87 -27 5 -36 4 -31 -5 4
-6 0 -11 -10 -11 -14 0 -16 7 -10 38 3 20 6 47 6 60 0 20 5 22 46 22 33 0 51
-5 60 -17z"/>
<path style="fill:#e64d7c;" d="M1047 703 c-52 -4 -57 -6 -52 -23 9 -29 10 -245 1 -315 l-7 -61 93 1
c51 0 82 2 68 5 -17 3 -7 6 28 10 49 5 55 8 74 42 18 32 20 44 12 85 -8 42
-13 49 -41 58 -37 10 -42 20 -14 28 27 7 37 69 16 105 -21 35 -75 73 -101 70
-10 -1 -45 -3 -77 -5z m110 -93 c17 -35 -3 -64 -49 -68 -38 -3 -48 11 -48 71
0 27 2 28 42 25 34 -2 45 -8 55 -28z m20 -142 c22 -28 21 -56 -3 -79 -21 -20
-28 -21 -60 -11 -30 9 -35 8 -30 -4 3 -8 1 -14 -4 -14 -11 0 -14 103 -3 113
11 12 90 7 100 -5z"/>
<path style="fill:#e64d7c;" d="M1785 705 c-5 -2 -29 -9 -52 -15 -32 -8 -47 -19 -59 -41 -8 -17 -18
-28 -21 -25 -3 3 0 12 7 21 7 9 10 18 7 21 -8 9 -29 -35 -22 -47 4 -5 2 -15
-4 -22 -5 -7 -10 -46 -10 -87 0 -125 0 -125 11 -109 7 10 9 8 5 -9 -3 -12 -2
-20 3 -17 4 3 11 -2 14 -10 3 -9 23 -25 43 -38 48 -28 136 -26 169 4 11 10 24
19 30 19 5 0 0 -7 -10 -15 -11 -8 -15 -15 -9 -15 13 0 27 18 29 40 1 8 -11 26
-28 39 l-29 24 -15 -22 c-11 -15 -26 -21 -54 -21 -78 0 -114 97 -73 197 15 34
24 43 55 51 32 8 39 7 59 -14 27 -29 36 -30 63 -6 20 16 20 16 6 -2 -14 -18
-14 -19 8 -7 l23 12 -20 32 c-25 40 -92 73 -126 62z"/>
<path d="M385 499 l0 -201 35 6 c19 3 70 6 112 6 l77 0 -2 30 -2 30 -80 0 -80
0 3 55 4 55 51 0 52 0 2 38 c1 28 -1 32 -7 17 -7 -16 -9 -17 -9 -3 -1 15 -8
16 -53 11 l-51 -6 6 33 c4 18 7 40 7 49 0 14 12 16 81 13 73 -3 81 -2 75 13
-3 9 -6 25 -6 36 0 18 -8 19 -107 19 l-108 0 0 -201z"/>
<path d="M680 692 c-13 -6 -15 -38 -16 -197 0 -126 3 -192 10 -197 6 -4 25 -7
41 -7 29 1 29 1 5 9 l-25 8 24 1 c24 1 24 2 18 83 -5 63 -4 79 5 70 7 -7 23
-12 35 -12 19 0 30 -12 53 -62 17 -35 30 -69 30 -75 0 -9 16 -13 46 -13 49 0
48 -1 9 55 -33 47 -68 128 -53 122 7 -2 24 5 37 17 l24 21 -18 -28 c-10 -15
-15 -30 -12 -33 3 -3 12 7 21 24 10 20 14 50 12 97 -3 64 -6 71 -37 97 -31 25
-41 27 -114 27 -44 0 -87 -3 -95 -7z m163 -66 c10 -8 17 -27 17 -49 0 -43 -19
-57 -79 -57 l-41 0 0 50 c0 28 -4 50 -10 50 -5 0 -10 5 -10 10 0 15 102 12
123 -4z"/>
<path d="M752 580 c0 -19 2 -27 5 -17 2 9 2 25 0 35 -3 9 -5 1 -5 -18z"/>
<path style="fill:#e64d7c;" d="M1352 608 c4 -51 5 -141 2 -199 l-6 -105 111 0 111 1 0 33 0 32 -87
0 c-53 0 -83 4 -74 9 9 6 12 23 9 56 l-3 47 53 -4 53 -3 -7 30 c-9 43 -9 43
-59 37 l-45 -5 0 49 0 49 80 -3 80 -4 0 36 0 36 -113 0 -112 0 7 -92z"/>
<path style="fill:#e64d7c;" d="M1997 693 l-27 -4 66 -125 c36 -68 61 -124 55 -124 -7 0 -11 -25 -11
-64 l0 -64 46 -4 45 -3 -6 80 -7 81 56 112 c31 61 56 114 56 117 0 3 -15 5
-33 5 -32 0 -35 -3 -78 -95 -41 -88 -64 -121 -52 -75 6 23 -57 171 -72 168 -5
0 -22 -3 -38 -5z"/>
<path style="fill:#e64d7c;" d="M2060 693 c1 -10 49 -100 50 -92 1 16 -33 99 -41 99 -5 0 -9 -3 -9
-7z"/>
<path d="M653 605 c0 -22 2 -30 4 -17 2 12 2 30 0 40 -3 9 -5 -1 -4 -23z"/>
<path d="M488 613 c12 -2 30 -2 40 0 9 3 -1 5 -23 4 -22 0 -30 -2 -17 -4z"/>
<path style="fill:#e64d7c;" d="M983 585 c0 -22 2 -30 4 -17 2 12 2 30 0 40 -3 9 -5 -1 -4 -23z"/>
<path style="fill:#e64d7c;" d="M1458 613 c12 -2 30 -2 40 0 9 3 -1 5 -23 4 -22 0 -30 -2 -17 -4z"/>
<path style="fill:#e64d7c;" d="M1732 585 c-17 -37 -15 -41 8 -12 22 27 25 37 12 37 -5 0 -14 -11
-20 -25z"/>
<path d="M281 588 c0 -9 -4 -25 -7 -35 -5 -14 -4 -15 5 -7 7 7 11 22 8 35 -2
13 -5 16 -6 7z"/>
<path d="M23 530 c0 -30 2 -43 4 -27 2 15 2 39 0 55 -2 15 -4 2 -4 -28z"/>
<path style="fill:#e64d7c;" d="M2196 514 c-15 -31 -25 -59 -22 -61 3 -3 17 21 31 52 33 75 27 81 -9
9z"/>
<path d="M373 430 c0 -36 2 -50 4 -32 2 17 2 47 0 65 -2 17 -4 3 -4 -33z"/>
<path style="fill:#e64d7c;" d="M1337 483 c-4 -3 -6 -34 -5 -67 l1 -61 7 65 c7 70 7 73 -3 63z"/>
<path d="M460 428 c0 -16 5 -28 10 -28 13 0 13 20 0 40 -8 12 -10 9 -10 -12z"/>
<path style="fill:#e64d7c;" d="M1430 425 c0 -14 4 -25 9 -25 4 0 6 11 3 25 -2 14 -6 25 -8 25 -2 0
-4 -11 -4 -25z"/>
<path d="M290 351 c-12 -24 -13 -34 -1 -27 9 6 22 46 15 46 -2 0 -8 -9 -14
-19z"/>
<path style="fill:#e64d7c;" d="M1250 341 c-6 -12 -7 -21 -1 -21 10 0 24 30 17 37 -2 3 -9 -5 -16
-16z"/>
<path style="fill:#e64d7c;" d="M574 193 c-4 -26 -13 -62 -21 -80 -11 -28 -11 -33 1 -33 8 0 16 4 18
8 2 5 18 12 36 15 23 5 32 3 32 -7 0 -8 7 -17 16 -20 10 -4 14 -2 11 6 -3 7
-13 46 -23 86 -15 63 -21 72 -40 72 -19 0 -24 -7 -30 -47z m45 -45 c1 -10 -6
-18 -14 -18 -16 0 -18 12 -8 49 6 23 7 23 14 5 4 -10 8 -27 8 -36z"/>
<path style="fill:#e64d7c;" d="M800 225 c0 -10 7 -15 18 -13 21 4 19 22 -2 26 -10 2 -16 -3 -16 -13z"/>
<path style="fill:#e64d7c;" d="M1238 235 c-2 -2 -2 -40 0 -85 3 -70 6 -81 20 -77 9 2 16 7 16 13 -1
5 -5 29 -9 53 -9 57 8 47 25 -14 13 -46 30 -61 30 -26 0 10 7 34 16 52 l15 34
-5 -52 c-4 -45 -3 -53 12 -53 15 0 17 11 17 80 0 75 -1 81 -20 78 -13 -2 -23
-15 -30 -40 -15 -53 -23 -56 -31 -9 -4 22 -9 41 -13 42 -3 0 -14 2 -23 4 -9 2
-18 2 -20 0z"/>
<path style="fill:#e64d7c;" d="M1610 225 c0 -10 7 -15 18 -13 21 4 19 22 -2 26 -10 2 -16 -3 -16
-13z"/>
<path style="fill:#e64d7c;" d="M957 203 c-4 -4 -28 -6 -52 -4 l-45 3 0 -61 c0 -48 3 -61 15 -61 11
0 15 12 15 44 0 29 5 46 14 49 19 8 30 -24 21 -62 -4 -20 -2 -30 9 -34 11 -5
17 3 21 27 4 18 5 41 3 52 -2 12 3 19 12 19 11 0 16 -13 18 -47 3 -39 7 -48
22 -48 16 0 17 4 9 32 -5 18 -9 45 -9 60 0 16 -4 28 -9 28 -5 0 -16 2 -23 5
-8 3 -17 2 -21 -2z"/>
<path style="fill:#e64d7c;" d="M1069 203 c-30 -7 -40 -91 -15 -112 17 -14 72 -11 68 4 -1 6 -12 10
-24 10 -12 0 -23 6 -26 14 -4 11 3 12 32 7 32 -6 36 -4 36 13 0 11 -5 32 -12
46 -11 24 -23 28 -59 18z m39 -41 c2 -7 -6 -12 -17 -12 -21 0 -27 11 -14 24 9
9 26 2 31 -12z"/>
<path style="fill:#e64d7c;" d="M1459 202 c-1 -4 0 -22 1 -40 2 -34 -16 -66 -31 -56 -5 3 -9 25 -9
50 0 33 -4 44 -15 44 -13 0 -15 -11 -13 -57 l3 -58 43 -1 c42 -2 42 -2 42 35
0 20 3 46 6 57 4 14 0 23 -10 27 -9 4 -16 3 -17 -1z"/>
<path style="fill:#e64d7c;" d="M682 169 c6 -16 8 -43 6 -59 -4 -25 -1 -30 15 -30 17 0 19 5 14 38
-4 20 -3 43 2 51 15 24 31 1 31 -45 0 -32 4 -44 15 -44 11 0 15 12 15 48 0 26
-4 52 -8 59 -4 6 -28 11 -54 11 l-46 0 10 -29z"/>
<path style="fill:#e64d7c;" d="M798 183 c5 -9 7 -34 4 -56 -3 -27 -1 -42 9 -47 21 -14 24 -5 21 59
-3 53 -6 61 -23 61 -16 0 -18 -4 -11 -17z"/>
<path style="fill:#e64d7c;" d="M1510 171 c0 -24 6 -31 33 -40 25 -9 29 -14 17 -21 -8 -5 -23 -7 -32
-4 -12 4 -18 0 -18 -11 0 -13 8 -16 38 -13 32 3 37 7 40 30 3 23 -3 30 -30 43
-31 14 -32 15 -5 11 21 -2 27 1 27 15 0 15 -8 19 -35 19 -32 0 -35 -3 -35 -29z"/>
<path style="fill:#e64d7c;" d="M1609 182 c5 -10 7 -36 4 -59 -4 -32 -2 -41 12 -47 10 -3 19 -5 19
-4 1 2 0 31 -2 66 -3 53 -6 62 -23 62 -16 0 -18 -4 -10 -18z"/>
<path style="fill:#e64d7c;" d="M1670 165 c-16 -48 1 -85 39 -85 31 0 66 19 41 21 -8 1 -19 3 -25 3
-22 3 -35 18 -35 42 0 22 4 25 28 22 19 -2 27 2 27 12 0 10 -12 16 -32 18 -28
3 -32 0 -43 -33z"/>
</g>
</svg>
